<mxfile host="app.diagrams.net" agent="Mozilla/5.0 (Windows NT 10.0; Win64; x64) AppleWebKit/537.36 (KHTML, like Gecko) Chrome/138.0.0.0 Safari/537.36" version="27.2.0" pages="4">
  <diagram name="요구사항확인" id="mnpZ9w2BjRRjKx7O8YKw">
    <mxGraphModel dx="740" dy="836" grid="1" gridSize="10" guides="1" tooltips="1" connect="1" arrows="1" fold="1" page="1" pageScale="1" pageWidth="827" pageHeight="1169" math="0" shadow="0">
      <root>
        <mxCell id="0" />
        <mxCell id="1" parent="0" />
        <mxCell id="K8jL_B9DEuJ4UlOCQIPt-1" value="" style="shape=card;whiteSpace=wrap;html=1;" vertex="1" parent="1">
          <mxGeometry x="25" y="10" width="1005" height="640" as="geometry" />
        </mxCell>
        <mxCell id="K8jL_B9DEuJ4UlOCQIPt-2" value="" style="rounded=0;whiteSpace=wrap;html=1;" vertex="1" parent="1">
          <mxGeometry x="775" y="110" width="240" height="530" as="geometry" />
        </mxCell>
        <mxCell id="K8jL_B9DEuJ4UlOCQIPt-3" value="" style="rounded=0;whiteSpace=wrap;html=1;" vertex="1" parent="1">
          <mxGeometry x="530" y="110" width="240" height="530" as="geometry" />
        </mxCell>
        <mxCell id="K8jL_B9DEuJ4UlOCQIPt-4" value="" style="rounded=0;whiteSpace=wrap;html=1;" vertex="1" parent="1">
          <mxGeometry x="285" y="110" width="240" height="530" as="geometry" />
        </mxCell>
        <mxCell id="K8jL_B9DEuJ4UlOCQIPt-5" value="" style="rounded=0;whiteSpace=wrap;html=1;" vertex="1" parent="1">
          <mxGeometry x="40" y="110" width="240" height="530" as="geometry" />
        </mxCell>
        <mxCell id="K8jL_B9DEuJ4UlOCQIPt-6" value="인증서비스" style="rounded=0;whiteSpace=wrap;html=1;fillColor=#e1d5e7;strokeColor=#9673a6;" vertex="1" parent="1">
          <mxGeometry x="40" y="110" width="240" height="30" as="geometry" />
        </mxCell>
        <mxCell id="K8jL_B9DEuJ4UlOCQIPt-7" value="인증서비스" style="rounded=0;whiteSpace=wrap;html=1;fillColor=#e1d5e7;strokeColor=#9673a6;" vertex="1" parent="1">
          <mxGeometry x="285" y="110" width="240" height="30" as="geometry" />
        </mxCell>
        <mxCell id="K8jL_B9DEuJ4UlOCQIPt-8" value="인증서비스" style="rounded=0;whiteSpace=wrap;html=1;fillColor=#e1d5e7;strokeColor=#9673a6;" vertex="1" parent="1">
          <mxGeometry x="530" y="110" width="240" height="30" as="geometry" />
        </mxCell>
        <mxCell id="K8jL_B9DEuJ4UlOCQIPt-9" value="인증서비스" style="rounded=0;whiteSpace=wrap;html=1;fillColor=#e1d5e7;strokeColor=#9673a6;" vertex="1" parent="1">
          <mxGeometry x="775" y="110" width="240" height="30" as="geometry" />
        </mxCell>
        <mxCell id="K8jL_B9DEuJ4UlOCQIPt-10" value="항공편 조회 서비스" style="rounded=0;whiteSpace=wrap;html=1;fillColor=#e1d5e7;strokeColor=#9673a6;" vertex="1" parent="1">
          <mxGeometry x="40" y="280" width="240" height="30" as="geometry" />
        </mxCell>
        <mxCell id="K8jL_B9DEuJ4UlOCQIPt-11" value="항공편 조회 서비스" style="rounded=0;whiteSpace=wrap;html=1;fillColor=#e1d5e7;strokeColor=#9673a6;" vertex="1" parent="1">
          <mxGeometry x="285" y="280" width="240" height="30" as="geometry" />
        </mxCell>
        <mxCell id="K8jL_B9DEuJ4UlOCQIPt-12" value="항공편 조회 서비스" style="rounded=0;whiteSpace=wrap;html=1;fillColor=#e1d5e7;strokeColor=#9673a6;" vertex="1" parent="1">
          <mxGeometry x="530" y="280" width="240" height="30" as="geometry" />
        </mxCell>
        <mxCell id="K8jL_B9DEuJ4UlOCQIPt-13" value="항공편 조회 서비스" style="rounded=0;whiteSpace=wrap;html=1;fillColor=#e1d5e7;strokeColor=#9673a6;" vertex="1" parent="1">
          <mxGeometry x="775" y="280" width="240" height="30" as="geometry" />
        </mxCell>
        <mxCell id="K8jL_B9DEuJ4UlOCQIPt-14" value="예매 서비스" style="rounded=0;whiteSpace=wrap;html=1;fillColor=#e1d5e7;strokeColor=#9673a6;" vertex="1" parent="1">
          <mxGeometry x="40" y="450" width="240" height="30" as="geometry" />
        </mxCell>
        <mxCell id="K8jL_B9DEuJ4UlOCQIPt-15" value="예매 서비스" style="rounded=0;whiteSpace=wrap;html=1;fillColor=#e1d5e7;strokeColor=#9673a6;" vertex="1" parent="1">
          <mxGeometry x="285" y="450" width="240" height="30" as="geometry" />
        </mxCell>
        <mxCell id="K8jL_B9DEuJ4UlOCQIPt-16" value="예매 서비스" style="rounded=0;whiteSpace=wrap;html=1;fillColor=#e1d5e7;strokeColor=#9673a6;" vertex="1" parent="1">
          <mxGeometry x="530" y="450" width="240" height="30" as="geometry" />
        </mxCell>
        <mxCell id="K8jL_B9DEuJ4UlOCQIPt-17" value="예매 서비스" style="rounded=0;whiteSpace=wrap;html=1;fillColor=#e1d5e7;strokeColor=#9673a6;" vertex="1" parent="1">
          <mxGeometry x="775" y="450" width="240" height="30" as="geometry" />
        </mxCell>
        <mxCell id="K8jL_B9DEuJ4UlOCQIPt-18" value="&lt;span style=&quot;font-size: 24px;&quot;&gt;항공권 예매 프로그램&lt;/span&gt;" style="text;html=1;align=center;verticalAlign=middle;resizable=0;points=[];autosize=1;strokeColor=none;fillColor=none;" vertex="1" parent="1">
          <mxGeometry x="40" y="20" width="240" height="40" as="geometry" />
        </mxCell>
        <mxCell id="K8jL_B9DEuJ4UlOCQIPt-19" value="사서" style="text;html=1;align=center;verticalAlign=middle;resizable=0;points=[];autosize=1;strokeColor=none;fillColor=none;" vertex="1" parent="1">
          <mxGeometry x="290" y="68" width="50" height="30" as="geometry" />
        </mxCell>
        <mxCell id="K8jL_B9DEuJ4UlOCQIPt-20" value="비회원" style="text;html=1;align=center;verticalAlign=middle;resizable=0;points=[];autosize=1;strokeColor=none;fillColor=none;" vertex="1" parent="1">
          <mxGeometry x="560" y="68" width="60" height="30" as="geometry" />
        </mxCell>
        <mxCell id="K8jL_B9DEuJ4UlOCQIPt-21" value="회원" style="text;html=1;align=center;verticalAlign=middle;resizable=0;points=[];autosize=1;strokeColor=none;fillColor=none;" vertex="1" parent="1">
          <mxGeometry x="40" y="68" width="50" height="30" as="geometry" />
        </mxCell>
        <mxCell id="K8jL_B9DEuJ4UlOCQIPt-22" value="관리자" style="text;html=1;align=center;verticalAlign=middle;resizable=0;points=[];autosize=1;strokeColor=none;fillColor=none;" vertex="1" parent="1">
          <mxGeometry x="840" y="68" width="60" height="30" as="geometry" />
        </mxCell>
        <mxCell id="K8jL_B9DEuJ4UlOCQIPt-23" value="&lt;div&gt;&lt;span style=&quot;background-color: transparent; color: light-dark(rgb(0, 0, 0), rgb(255, 255, 255));&quot;&gt;회원은 항공편 일정/가격 조회(Read) 할 수 있다&lt;/span&gt;&lt;/div&gt;&lt;div&gt;&lt;br&gt;&lt;/div&gt;&lt;div&gt;&lt;br&gt;&lt;/div&gt;" style="text;html=1;align=left;verticalAlign=middle;resizable=0;points=[];autosize=1;strokeColor=none;fillColor=none;fontSize=10;" vertex="1" parent="1">
          <mxGeometry x="60" y="330" width="220" height="50" as="geometry" />
        </mxCell>
        <mxCell id="K8jL_B9DEuJ4UlOCQIPt-24" value="&lt;div&gt;&lt;span style=&quot;background-color: transparent; color: light-dark(rgb(0, 0, 0), rgb(255, 255, 255));&quot;&gt;회원은 나의정보 조회(Read) 할 수 있다&lt;/span&gt;&lt;/div&gt;&lt;div&gt;회원은 나의정보 수정(Update) 할 수 있다&lt;/div&gt;&lt;div&gt;회원은 회원탈퇴(Delete) 할 수 있다&lt;/div&gt;&lt;div&gt;&lt;br&gt;&lt;/div&gt;&lt;div&gt;회원은 로그인(Process) 할 수 있다&lt;/div&gt;&lt;div&gt;회원은 로그아웃&lt;span style=&quot;background-color: transparent; color: light-dark(rgb(0, 0, 0), rgb(255, 255, 255));&quot;&gt;(Process)&lt;/span&gt;&lt;span style=&quot;background-color: transparent; color: light-dark(rgb(0, 0, 0), rgb(255, 255, 255));&quot;&gt;&amp;nbsp;할 수 있다&lt;/span&gt;&lt;/div&gt;&lt;div&gt;&lt;br&gt;&lt;/div&gt;" style="text;html=1;align=left;verticalAlign=middle;resizable=0;points=[];autosize=1;strokeColor=none;fillColor=none;fontSize=10;" vertex="1" parent="1">
          <mxGeometry x="60" y="155" width="200" height="100" as="geometry" />
        </mxCell>
        <mxCell id="K8jL_B9DEuJ4UlOCQIPt-25" value="&lt;br&gt;&lt;div&gt;&lt;span style=&quot;background-color: transparent; color: light-dark(rgb(0, 0, 0), rgb(255, 255, 255));&quot;&gt;회원은 나의 항공편 예매현황 조회(Read) 할 수 있다&lt;/span&gt;&lt;/div&gt;&lt;div&gt;회원은 나의 항공권 예매상태 변경(Update) 할 수 있다&lt;/div&gt;&lt;div&gt;&lt;br&gt;&lt;/div&gt;&lt;div&gt;회원은 나의 항공권 예매취소 시&amp;nbsp;&lt;/div&gt;&lt;div&gt;환불(Process)&amp;nbsp;&amp;nbsp;&lt;span style=&quot;background-color: transparent; color: light-dark(rgb(0, 0, 0), rgb(255, 255, 255));&quot;&gt;할 수 있다&lt;/span&gt;&lt;/div&gt;&lt;div&gt;회원은 항공권 티켓을 구매(Process) 할 수 있다&lt;/div&gt;&lt;div&gt;&lt;br&gt;&lt;/div&gt;" style="text;html=1;align=left;verticalAlign=middle;resizable=0;points=[];autosize=1;strokeColor=none;fillColor=none;fontSize=10;" vertex="1" parent="1">
          <mxGeometry x="47" y="480" width="250" height="110" as="geometry" />
        </mxCell>
        <mxCell id="K8jL_B9DEuJ4UlOCQIPt-26" value="&lt;br&gt;&lt;div&gt;비회원은 회원가입(Create)을 할 수 있다&lt;/div&gt;&lt;div&gt;&lt;br&gt;&lt;/div&gt;" style="text;html=1;align=left;verticalAlign=middle;resizable=0;points=[];autosize=1;strokeColor=none;fillColor=none;fontSize=10;" vertex="1" parent="1">
          <mxGeometry x="550" y="140" width="190" height="50" as="geometry" />
        </mxCell>
        <mxCell id="K8jL_B9DEuJ4UlOCQIPt-27" value="&lt;div&gt;&lt;span style=&quot;background-color: transparent; color: light-dark(rgb(0, 0, 0), rgb(255, 255, 255));&quot;&gt;직원은 나의정보 조회(Read) 할 수 있다&lt;/span&gt;&lt;/div&gt;&lt;div&gt;직원은 나의정보 수정(Update) 할 수 있다&lt;/div&gt;&lt;div&gt;직원은 회원탈퇴(Delete) 할 수 있다&lt;/div&gt;&lt;div&gt;&lt;br&gt;&lt;/div&gt;&lt;div&gt;직원은 로그인(Process) 할 수 있다&lt;/div&gt;&lt;div&gt;직원은 로그아웃&lt;span style=&quot;background-color: transparent; color: light-dark(rgb(0, 0, 0), rgb(255, 255, 255));&quot;&gt;(Process)&lt;/span&gt;&lt;span style=&quot;background-color: transparent; color: light-dark(rgb(0, 0, 0), rgb(255, 255, 255));&quot;&gt;&amp;nbsp;할 수 있다&lt;/span&gt;&lt;/div&gt;&lt;div&gt;&lt;br&gt;&lt;/div&gt;" style="text;html=1;align=left;verticalAlign=middle;resizable=0;points=[];autosize=1;strokeColor=none;fillColor=none;fontSize=10;" vertex="1" parent="1">
          <mxGeometry x="305" y="155" width="200" height="100" as="geometry" />
        </mxCell>
        <mxCell id="K8jL_B9DEuJ4UlOCQIPt-28" value="&lt;br&gt;&lt;div&gt;&lt;span style=&quot;background-color: transparent; color: light-dark(rgb(0, 0, 0), rgb(255, 255, 255));&quot;&gt;비회원은 항공편 조회(Read) 할 수 있다&lt;/span&gt;&lt;/div&gt;&lt;div&gt;&lt;br&gt;&lt;/div&gt;" style="text;html=1;align=left;verticalAlign=middle;resizable=0;points=[];autosize=1;strokeColor=none;fillColor=none;fontSize=10;" vertex="1" parent="1">
          <mxGeometry x="550" y="320" width="190" height="50" as="geometry" />
        </mxCell>
        <mxCell id="K8jL_B9DEuJ4UlOCQIPt-29" value="&lt;div&gt;직원은 항공편 등록(Create) 할 수 있다&lt;/div&gt;&lt;div&gt;&lt;span style=&quot;background-color: transparent; color: light-dark(rgb(0, 0, 0), rgb(255, 255, 255));&quot;&gt;직원은 항공편 조회(Read) 할 수 있다&lt;/span&gt;&lt;/div&gt;&lt;div&gt;&lt;br&gt;&lt;/div&gt;&lt;div&gt;&lt;span style=&quot;background-color: transparent; color: light-dark(rgb(0, 0, 0), rgb(255, 255, 255));&quot;&gt;&amp;nbsp;&lt;/span&gt;&lt;/div&gt;" style="text;html=1;align=left;verticalAlign=middle;resizable=0;points=[];autosize=1;strokeColor=none;fillColor=none;fontSize=10;" vertex="1" parent="1">
          <mxGeometry x="305" y="331" width="180" height="60" as="geometry" />
        </mxCell>
        <mxCell id="K8jL_B9DEuJ4UlOCQIPt-30" value="회원" style="rounded=0;whiteSpace=wrap;html=1;fillColor=#dae8fc;strokeColor=#6c8ebf;" vertex="1" parent="1">
          <mxGeometry x="40" y="68" width="240" height="30" as="geometry" />
        </mxCell>
        <mxCell id="K8jL_B9DEuJ4UlOCQIPt-31" value="직원" style="rounded=0;whiteSpace=wrap;html=1;fillColor=#dae8fc;strokeColor=#6c8ebf;" vertex="1" parent="1">
          <mxGeometry x="285" y="68" width="240" height="30" as="geometry" />
        </mxCell>
        <mxCell id="K8jL_B9DEuJ4UlOCQIPt-32" value="관리자" style="rounded=0;whiteSpace=wrap;html=1;fillColor=#dae8fc;strokeColor=#6c8ebf;" vertex="1" parent="1">
          <mxGeometry x="775" y="68" width="240" height="30" as="geometry" />
        </mxCell>
        <mxCell id="K8jL_B9DEuJ4UlOCQIPt-33" value="비회원" style="rounded=0;whiteSpace=wrap;html=1;fillColor=#dae8fc;strokeColor=#6c8ebf;" vertex="1" parent="1">
          <mxGeometry x="530" y="68" width="240" height="30" as="geometry" />
        </mxCell>
        <mxCell id="K8jL_B9DEuJ4UlOCQIPt-34" value="&lt;div&gt;직원은 고객의 항공편 예매 처리(Create) 할 수 있다&lt;/div&gt;&lt;div&gt;&lt;span style=&quot;background-color: transparent; color: light-dark(rgb(0, 0, 0), rgb(255, 255, 255));&quot;&gt;직원은 고객의 예매내역 조회(Read) 할 수 있다&lt;/span&gt;&lt;/div&gt;&lt;div&gt;직원은 고객의 예매내역 변경(Update) 할 수 있다&lt;/div&gt;&lt;div&gt;직원은 고객의 예매내역 취소(Delete) 할 수 있다&lt;/div&gt;&lt;div&gt;&lt;br&gt;&lt;/div&gt;&lt;div&gt;&lt;br&gt;&lt;/div&gt;" style="text;html=1;align=left;verticalAlign=middle;resizable=0;points=[];autosize=1;strokeColor=none;fillColor=none;fontSize=10;" vertex="1" parent="1">
          <mxGeometry x="296" y="489" width="240" height="90" as="geometry" />
        </mxCell>
        <mxCell id="K8jL_B9DEuJ4UlOCQIPt-35" value="&lt;br&gt;&lt;div&gt;&lt;span style=&quot;background-color: transparent; color: light-dark(rgb(0, 0, 0), rgb(255, 255, 255));&quot;&gt;회원은 나의 항공편 예매현황 조회(Read) 할 수 있다&lt;/span&gt;&lt;/div&gt;&lt;div&gt;회원은 나의 항공권 예매상태 변경(Update) 할 수 있다&lt;/div&gt;&lt;div&gt;&lt;br&gt;&lt;/div&gt;&lt;div&gt;회원은 나의 항공권 예매취소 시&amp;nbsp;&lt;/div&gt;&lt;div&gt;환불(Process)&amp;nbsp; 할 수 있다&lt;/div&gt;&lt;div&gt;회원은 항공권 티켓을 구매(Process) 할 수 있다&lt;/div&gt;&lt;div&gt;&lt;br&gt;&lt;/div&gt;" style="text;html=1;align=left;verticalAlign=middle;resizable=0;points=[];autosize=1;strokeColor=none;fillColor=none;fontSize=10;" vertex="1" parent="1">
          <mxGeometry x="532" y="1010" width="250" height="110" as="geometry" />
        </mxCell>
        <mxCell id="K8jL_B9DEuJ4UlOCQIPt-36" value="&lt;div&gt;&lt;span style=&quot;background-color: transparent; color: light-dark(rgb(0, 0, 0), rgb(255, 255, 255));&quot;&gt;관리자는 모든 회원정보 조회(Read) 할 수 있다&lt;/span&gt;&lt;/div&gt;&lt;div&gt;관리자는 모든 회원정보 수정(Update) 할 수 있다&lt;/div&gt;&lt;div&gt;관리자는 모든 회원정보 삭제(Delete) 할 수 있다&lt;/div&gt;&lt;div&gt;&lt;br&gt;&lt;/div&gt;&lt;div&gt;관리자는 로그인(Process) 할 수 있다&lt;/div&gt;&lt;div&gt;관리자는 로그아웃&lt;span style=&quot;background-color: transparent; color: light-dark(rgb(0, 0, 0), rgb(255, 255, 255));&quot;&gt;(Process)&lt;/span&gt;&lt;span style=&quot;background-color: transparent; color: light-dark(rgb(0, 0, 0), rgb(255, 255, 255));&quot;&gt;&amp;nbsp;할 수 있다&lt;/span&gt;&lt;/div&gt;&lt;div&gt;&lt;br&gt;&lt;/div&gt;" style="text;html=1;align=left;verticalAlign=middle;resizable=0;points=[];autosize=1;strokeColor=none;fillColor=none;fontSize=10;" vertex="1" parent="1">
          <mxGeometry x="786" y="150" width="230" height="100" as="geometry" />
        </mxCell>
        <mxCell id="K8jL_B9DEuJ4UlOCQIPt-37" value="&lt;div&gt;관리자는 항공편 등록(Create) 할 수 있다&lt;/div&gt;&lt;div&gt;&lt;span style=&quot;background-color: transparent; color: light-dark(rgb(0, 0, 0), rgb(255, 255, 255));&quot;&gt;관리자는 항공편 조회(Read) 할 수 있다&lt;/span&gt;&lt;/div&gt;&lt;div&gt;관리자는&amp;nbsp;&lt;span style=&quot;background-color: transparent; color: light-dark(rgb(0, 0, 0), rgb(255, 255, 255));&quot;&gt;항공편 수정(Update) 할 수 있다&lt;/span&gt;&lt;/div&gt;&lt;div&gt;&lt;span style=&quot;background-color: transparent; color: light-dark(rgb(0, 0, 0), rgb(255, 255, 255));&quot;&gt;관리자는 항공편 삭제(Delete) 할 수 있다&lt;/span&gt;&lt;/div&gt;&lt;div&gt;&lt;span style=&quot;background-color: transparent; color: light-dark(rgb(0, 0, 0), rgb(255, 255, 255));&quot;&gt;&lt;br&gt;&lt;/span&gt;&lt;/div&gt;&lt;div&gt;&lt;span style=&quot;background-color: transparent; color: light-dark(rgb(0, 0, 0), rgb(255, 255, 255));&quot;&gt;관리자는 항공편 지연/결항 시&amp;nbsp;&lt;/span&gt;&lt;/div&gt;&lt;div&gt;&lt;span style=&quot;background-color: transparent; color: light-dark(rgb(0, 0, 0), rgb(255, 255, 255));&quot;&gt;알림 업데이트(Process) 할 수 있다&lt;/span&gt;&lt;/div&gt;&lt;div&gt;&amp;nbsp;&lt;/div&gt;" style="text;html=1;align=left;verticalAlign=middle;resizable=0;points=[];autosize=1;strokeColor=none;fillColor=none;fontSize=10;" vertex="1" parent="1">
          <mxGeometry x="786" y="320" width="200" height="110" as="geometry" />
        </mxCell>
        <mxCell id="K8jL_B9DEuJ4UlOCQIPt-38" value="&lt;div&gt;관리자는 고객의 항공편 예매 처리(Create) 할 수 있다&lt;/div&gt;&lt;div&gt;&lt;span style=&quot;background-color: transparent; color: light-dark(rgb(0, 0, 0), rgb(255, 255, 255));&quot;&gt;관리자는 고객의 예매내역 조회(Read) 할 수 있다&lt;/span&gt;&lt;/div&gt;&lt;div&gt;관리자는 고객의 예매내역 변경(Update) 할 수 있다&lt;/div&gt;&lt;div&gt;관리자는 고객의 예매내역 취소(Delete) 할 수 있다&lt;/div&gt;&lt;div&gt;&lt;br&gt;&lt;/div&gt;&lt;div&gt;관리자는 회원의 요청사항 처리(Process) 할 수 있다&lt;/div&gt;&lt;div&gt;*환불 및 탈퇴&lt;/div&gt;&lt;div&gt;&lt;br&gt;&lt;/div&gt;&lt;div&gt;&lt;br&gt;&lt;/div&gt;" style="text;html=1;align=left;verticalAlign=middle;resizable=0;points=[];autosize=1;strokeColor=none;fillColor=none;fontSize=10;" vertex="1" parent="1">
          <mxGeometry x="782" y="490" width="250" height="120" as="geometry" />
        </mxCell>
      </root>
    </mxGraphModel>
  </diagram>
  <diagram name="USECASE" id="KM7qWtNtN_gEqPWeJRF6">
    <mxGraphModel dx="2253" dy="837" grid="1" gridSize="10" guides="1" tooltips="1" connect="1" arrows="1" fold="1" page="1" pageScale="1" pageWidth="827" pageHeight="1169" math="0" shadow="0">
      <root>
        <mxCell id="0" />
        <mxCell id="1" parent="0" />
        <mxCell id="4e69PK49C4f4pI-jG1Hq-1" value="도서 관리 시스템" style="shape=umlFrame;whiteSpace=wrap;html=1;pointerEvents=0;width=120;height=30;" parent="1" vertex="1">
          <mxGeometry x="-195" y="40" width="695" height="690" as="geometry" />
        </mxCell>
        <mxCell id="4e69PK49C4f4pI-jG1Hq-2" value="회원" style="shape=umlActor;verticalLabelPosition=bottom;verticalAlign=top;html=1;" parent="1" vertex="1">
          <mxGeometry x="-275" y="110" width="30" height="60" as="geometry" />
        </mxCell>
        <mxCell id="4e69PK49C4f4pI-jG1Hq-3" value="비회원" style="shape=umlActor;verticalLabelPosition=bottom;verticalAlign=top;html=1;" parent="1" vertex="1">
          <mxGeometry x="-275" y="510" width="30" height="60" as="geometry" />
        </mxCell>
        <mxCell id="4e69PK49C4f4pI-jG1Hq-4" value="사서" style="shape=umlActor;verticalLabelPosition=bottom;verticalAlign=top;html=1;" parent="1" vertex="1">
          <mxGeometry x="550" y="110" width="30" height="60" as="geometry" />
        </mxCell>
        <mxCell id="4e69PK49C4f4pI-jG1Hq-5" value="도서조회" style="ellipse;whiteSpace=wrap;html=1;" parent="1" vertex="1">
          <mxGeometry x="-125" y="110" width="100" height="40" as="geometry" />
        </mxCell>
        <mxCell id="4e69PK49C4f4pI-jG1Hq-6" value="도서등록" style="ellipse;whiteSpace=wrap;html=1;" parent="1" vertex="1">
          <mxGeometry x="348" y="180" width="100" height="40" as="geometry" />
        </mxCell>
        <mxCell id="4e69PK49C4f4pI-jG1Hq-7" value="도서수정" style="ellipse;whiteSpace=wrap;html=1;" parent="1" vertex="1">
          <mxGeometry x="348" y="255" width="100" height="40" as="geometry" />
        </mxCell>
        <mxCell id="4e69PK49C4f4pI-jG1Hq-8" value="도서삭제" style="ellipse;whiteSpace=wrap;html=1;" parent="1" vertex="1">
          <mxGeometry x="348" y="325" width="100" height="40" as="geometry" />
        </mxCell>
        <mxCell id="4e69PK49C4f4pI-jG1Hq-9" value="use" style="html=1;verticalAlign=bottom;endArrow=block;curved=0;rounded=0;entryX=-0.02;entryY=0.675;entryDx=0;entryDy=0;entryPerimeter=0;" parent="1" source="4e69PK49C4f4pI-jG1Hq-2" target="4e69PK49C4f4pI-jG1Hq-5" edge="1">
          <mxGeometry width="80" relative="1" as="geometry">
            <mxPoint x="155" y="410" as="sourcePoint" />
            <mxPoint x="235" y="410" as="targetPoint" />
          </mxGeometry>
        </mxCell>
        <mxCell id="4e69PK49C4f4pI-jG1Hq-10" value="use" style="html=1;verticalAlign=bottom;endArrow=block;curved=0;rounded=0;entryX=0.25;entryY=0.975;entryDx=0;entryDy=0;entryPerimeter=0;" parent="1" source="4e69PK49C4f4pI-jG1Hq-3" target="4e69PK49C4f4pI-jG1Hq-5" edge="1">
          <mxGeometry width="80" relative="1" as="geometry">
            <mxPoint x="155" y="410" as="sourcePoint" />
            <mxPoint x="235" y="410" as="targetPoint" />
          </mxGeometry>
        </mxCell>
        <mxCell id="4e69PK49C4f4pI-jG1Hq-11" value="use" style="html=1;verticalAlign=bottom;endArrow=block;curved=0;rounded=0;entryX=1;entryY=0.75;entryDx=0;entryDy=0;entryPerimeter=0;" parent="1" source="4e69PK49C4f4pI-jG1Hq-4" target="4e69PK49C4f4pI-jG1Hq-5" edge="1">
          <mxGeometry width="80" relative="1" as="geometry">
            <mxPoint x="155" y="410" as="sourcePoint" />
            <mxPoint x="235" y="410" as="targetPoint" />
          </mxGeometry>
        </mxCell>
        <mxCell id="4e69PK49C4f4pI-jG1Hq-12" value="use" style="html=1;verticalAlign=bottom;endArrow=block;curved=0;rounded=0;entryX=0.93;entryY=0.225;entryDx=0;entryDy=0;entryPerimeter=0;" parent="1" source="4e69PK49C4f4pI-jG1Hq-4" target="4e69PK49C4f4pI-jG1Hq-6" edge="1">
          <mxGeometry width="80" relative="1" as="geometry">
            <mxPoint x="118" y="410" as="sourcePoint" />
            <mxPoint x="198" y="410" as="targetPoint" />
          </mxGeometry>
        </mxCell>
        <mxCell id="4e69PK49C4f4pI-jG1Hq-13" value="로그인" style="ellipse;whiteSpace=wrap;html=1;" parent="1" vertex="1">
          <mxGeometry x="93" y="280" width="100" height="40" as="geometry" />
        </mxCell>
        <mxCell id="4e69PK49C4f4pI-jG1Hq-14" value="" style="endArrow=open;dashed=1;endFill=0;endSize=12;html=1;rounded=0;exitX=0.03;exitY=0.775;exitDx=0;exitDy=0;exitPerimeter=0;entryX=0.92;entryY=0.25;entryDx=0;entryDy=0;entryPerimeter=0;" parent="1" source="4e69PK49C4f4pI-jG1Hq-6" target="4e69PK49C4f4pI-jG1Hq-13" edge="1">
          <mxGeometry width="160" relative="1" as="geometry">
            <mxPoint x="78" y="410" as="sourcePoint" />
            <mxPoint x="238" y="410" as="targetPoint" />
          </mxGeometry>
        </mxCell>
        <mxCell id="4e69PK49C4f4pI-jG1Hq-17" value="&amp;lt;&amp;lt;include&amp;gt;&amp;gt;" style="edgeLabel;html=1;align=center;verticalAlign=middle;resizable=0;points=[];" parent="4e69PK49C4f4pI-jG1Hq-14" vertex="1" connectable="0">
          <mxGeometry x="-0.0875" y="-3" relative="1" as="geometry">
            <mxPoint as="offset" />
          </mxGeometry>
        </mxCell>
        <mxCell id="4e69PK49C4f4pI-jG1Hq-19" value="" style="endArrow=open;dashed=1;endFill=0;endSize=12;html=1;rounded=0;exitX=0;exitY=0.5;exitDx=0;exitDy=0;entryX=1;entryY=0.5;entryDx=0;entryDy=0;" parent="1" source="4e69PK49C4f4pI-jG1Hq-7" target="4e69PK49C4f4pI-jG1Hq-13" edge="1">
          <mxGeometry width="160" relative="1" as="geometry">
            <mxPoint x="404" y="420" as="sourcePoint" />
            <mxPoint x="238" y="499" as="targetPoint" />
          </mxGeometry>
        </mxCell>
        <mxCell id="4e69PK49C4f4pI-jG1Hq-20" value="&amp;lt;&amp;lt;include&amp;gt;&amp;gt;" style="edgeLabel;html=1;align=center;verticalAlign=middle;resizable=0;points=[];" parent="4e69PK49C4f4pI-jG1Hq-19" vertex="1" connectable="0">
          <mxGeometry x="-0.0875" y="-3" relative="1" as="geometry">
            <mxPoint as="offset" />
          </mxGeometry>
        </mxCell>
        <mxCell id="4e69PK49C4f4pI-jG1Hq-21" value="" style="endArrow=open;dashed=1;endFill=0;endSize=12;html=1;rounded=0;" parent="1" target="4e69PK49C4f4pI-jG1Hq-13" edge="1">
          <mxGeometry width="160" relative="1" as="geometry">
            <mxPoint x="348" y="340" as="sourcePoint" />
            <mxPoint x="308" y="419" as="targetPoint" />
          </mxGeometry>
        </mxCell>
        <mxCell id="4e69PK49C4f4pI-jG1Hq-22" value="&amp;lt;&amp;lt;include&amp;gt;&amp;gt;" style="edgeLabel;html=1;align=center;verticalAlign=middle;resizable=0;points=[];" parent="4e69PK49C4f4pI-jG1Hq-21" vertex="1" connectable="0">
          <mxGeometry x="-0.0875" y="-3" relative="1" as="geometry">
            <mxPoint as="offset" />
          </mxGeometry>
        </mxCell>
        <mxCell id="4e69PK49C4f4pI-jG1Hq-23" value="전체" style="ellipse;whiteSpace=wrap;html=1;" parent="1" vertex="1">
          <mxGeometry x="-82" y="184" width="40" height="40" as="geometry" />
        </mxCell>
        <mxCell id="4e69PK49C4f4pI-jG1Hq-24" value="키워드" style="ellipse;whiteSpace=wrap;html=1;" parent="1" vertex="1">
          <mxGeometry x="-32" y="186" width="40" height="40" as="geometry" />
        </mxCell>
        <mxCell id="4e69PK49C4f4pI-jG1Hq-30" value="" style="endArrow=open;dashed=1;endFill=0;endSize=12;html=1;rounded=0;entryX=0.5;entryY=1;entryDx=0;entryDy=0;exitX=0.5;exitY=0;exitDx=0;exitDy=0;" parent="1" source="4e69PK49C4f4pI-jG1Hq-23" target="4e69PK49C4f4pI-jG1Hq-5" edge="1">
          <mxGeometry width="160" relative="1" as="geometry">
            <mxPoint x="385" y="451" as="sourcePoint" />
            <mxPoint x="225" y="420" as="targetPoint" />
          </mxGeometry>
        </mxCell>
        <mxCell id="4e69PK49C4f4pI-jG1Hq-33" value="&amp;lt;&amp;lt;extend&amp;gt;&amp;gt;" style="edgeLabel;html=1;align=center;verticalAlign=middle;resizable=0;points=[];" parent="4e69PK49C4f4pI-jG1Hq-30" vertex="1" connectable="0">
          <mxGeometry x="-0.0443" y="3" relative="1" as="geometry">
            <mxPoint as="offset" />
          </mxGeometry>
        </mxCell>
        <mxCell id="4e69PK49C4f4pI-jG1Hq-35" value="" style="endArrow=open;dashed=1;endFill=0;endSize=12;html=1;rounded=0;entryX=0.68;entryY=1.05;entryDx=0;entryDy=0;entryPerimeter=0;" parent="1" target="4e69PK49C4f4pI-jG1Hq-5" edge="1">
          <mxGeometry width="160" relative="1" as="geometry">
            <mxPoint x="-19" y="184" as="sourcePoint" />
            <mxPoint x="-32" y="150" as="targetPoint" />
          </mxGeometry>
        </mxCell>
        <mxCell id="4e69PK49C4f4pI-jG1Hq-36" value="&amp;lt;&amp;lt;extend&amp;gt;&amp;gt;" style="edgeLabel;html=1;align=center;verticalAlign=middle;resizable=0;points=[];" parent="4e69PK49C4f4pI-jG1Hq-35" vertex="1" connectable="0">
          <mxGeometry x="-0.0443" y="3" relative="1" as="geometry">
            <mxPoint as="offset" />
          </mxGeometry>
        </mxCell>
        <mxCell id="4e69PK49C4f4pI-jG1Hq-37" value="회원가입" style="ellipse;whiteSpace=wrap;html=1;" parent="1" vertex="1">
          <mxGeometry x="-112" y="575" width="100" height="40" as="geometry" />
        </mxCell>
        <mxCell id="4e69PK49C4f4pI-jG1Hq-38" value="use" style="html=1;verticalAlign=bottom;endArrow=block;curved=0;rounded=0;entryX=0.08;entryY=0.25;entryDx=0;entryDy=0;entryPerimeter=0;" parent="1" source="4e69PK49C4f4pI-jG1Hq-3" target="4e69PK49C4f4pI-jG1Hq-37" edge="1">
          <mxGeometry width="80" relative="1" as="geometry">
            <mxPoint x="-75" y="821" as="sourcePoint" />
            <mxPoint x="74" y="410" as="targetPoint" />
          </mxGeometry>
        </mxCell>
        <mxCell id="4e69PK49C4f4pI-jG1Hq-39" value="관리자" style="shape=umlActor;verticalLabelPosition=bottom;verticalAlign=top;html=1;" parent="1" vertex="1">
          <mxGeometry x="550" y="510" width="30" height="60" as="geometry" />
        </mxCell>
        <mxCell id="4e69PK49C4f4pI-jG1Hq-41" value="회원관리" style="ellipse;whiteSpace=wrap;html=1;" parent="1" vertex="1">
          <mxGeometry x="241" y="421" width="100" height="40" as="geometry" />
        </mxCell>
        <mxCell id="4e69PK49C4f4pI-jG1Hq-46" value="" style="edgeStyle=orthogonalEdgeStyle;rounded=0;orthogonalLoop=1;jettySize=auto;html=1;endArrow=block;endFill=0;" parent="1" source="4e69PK49C4f4pI-jG1Hq-42" target="4e69PK49C4f4pI-jG1Hq-41" edge="1">
          <mxGeometry relative="1" as="geometry">
            <Array as="points">
              <mxPoint x="211" y="481" />
              <mxPoint x="291" y="481" />
            </Array>
          </mxGeometry>
        </mxCell>
        <mxCell id="4e69PK49C4f4pI-jG1Hq-42" value="조회" style="ellipse;whiteSpace=wrap;html=1;" parent="1" vertex="1">
          <mxGeometry x="191" y="501" width="40" height="40" as="geometry" />
        </mxCell>
        <mxCell id="4e69PK49C4f4pI-jG1Hq-47" value="" style="edgeStyle=orthogonalEdgeStyle;rounded=0;orthogonalLoop=1;jettySize=auto;html=1;endArrow=block;endFill=0;" parent="1" source="4e69PK49C4f4pI-jG1Hq-43" target="4e69PK49C4f4pI-jG1Hq-41" edge="1">
          <mxGeometry relative="1" as="geometry" />
        </mxCell>
        <mxCell id="4e69PK49C4f4pI-jG1Hq-43" value="등록" style="ellipse;whiteSpace=wrap;html=1;direction=south;" parent="1" vertex="1">
          <mxGeometry x="241" y="501" width="40" height="40" as="geometry" />
        </mxCell>
        <mxCell id="4e69PK49C4f4pI-jG1Hq-51" value="" style="edgeStyle=orthogonalEdgeStyle;rounded=0;orthogonalLoop=1;jettySize=auto;html=1;endArrow=block;endFill=0;" parent="1" source="4e69PK49C4f4pI-jG1Hq-44" target="4e69PK49C4f4pI-jG1Hq-41" edge="1">
          <mxGeometry relative="1" as="geometry" />
        </mxCell>
        <mxCell id="4e69PK49C4f4pI-jG1Hq-44" value="수정" style="ellipse;whiteSpace=wrap;html=1;" parent="1" vertex="1">
          <mxGeometry x="301" y="501" width="40" height="40" as="geometry" />
        </mxCell>
        <mxCell id="4e69PK49C4f4pI-jG1Hq-52" value="" style="edgeStyle=orthogonalEdgeStyle;rounded=0;orthogonalLoop=1;jettySize=auto;html=1;endArrow=block;endFill=0;" parent="1" source="4e69PK49C4f4pI-jG1Hq-45" target="4e69PK49C4f4pI-jG1Hq-41" edge="1">
          <mxGeometry relative="1" as="geometry">
            <Array as="points">
              <mxPoint x="371" y="481" />
              <mxPoint x="291" y="481" />
            </Array>
          </mxGeometry>
        </mxCell>
        <mxCell id="4e69PK49C4f4pI-jG1Hq-45" value="삭제" style="ellipse;whiteSpace=wrap;html=1;" parent="1" vertex="1">
          <mxGeometry x="351" y="501" width="40" height="40" as="geometry" />
        </mxCell>
        <mxCell id="4e69PK49C4f4pI-jG1Hq-54" value="일반&lt;div&gt;계정&lt;/div&gt;" style="ellipse;whiteSpace=wrap;html=1;" parent="1" vertex="1">
          <mxGeometry x="123" y="575" width="40" height="40" as="geometry" />
        </mxCell>
        <mxCell id="4e69PK49C4f4pI-jG1Hq-55" value="사서&lt;div&gt;계정&lt;/div&gt;" style="ellipse;whiteSpace=wrap;html=1;" parent="1" vertex="1">
          <mxGeometry x="191" y="600" width="40" height="40" as="geometry" />
        </mxCell>
        <mxCell id="4e69PK49C4f4pI-jG1Hq-56" value="나의&lt;div&gt;정보&lt;/div&gt;" style="ellipse;whiteSpace=wrap;html=1;" parent="1" vertex="1">
          <mxGeometry x="90" y="510" width="40" height="40" as="geometry" />
        </mxCell>
        <mxCell id="4e69PK49C4f4pI-jG1Hq-57" value="use" style="html=1;verticalAlign=bottom;endArrow=block;curved=0;rounded=0;entryX=1;entryY=0.75;entryDx=0;entryDy=0;entryPerimeter=0;" parent="1" source="4e69PK49C4f4pI-jG1Hq-39" target="4e69PK49C4f4pI-jG1Hq-41" edge="1">
          <mxGeometry width="80" relative="1" as="geometry">
            <mxPoint x="128" y="410" as="sourcePoint" />
            <mxPoint x="208" y="410" as="targetPoint" />
          </mxGeometry>
        </mxCell>
        <mxCell id="4e69PK49C4f4pI-jG1Hq-61" value=".use" style="html=1;verticalAlign=bottom;endArrow=block;curved=0;rounded=0;entryX=0;entryY=0;entryDx=0;entryDy=0;" parent="1" target="4e69PK49C4f4pI-jG1Hq-56" edge="1">
          <mxGeometry width="80" relative="1" as="geometry">
            <mxPoint x="-245" y="140" as="sourcePoint" />
            <mxPoint x="245" y="410" as="targetPoint" />
          </mxGeometry>
        </mxCell>
        <mxCell id="4e69PK49C4f4pI-jG1Hq-64" value="" style="endArrow=open;dashed=1;endFill=0;endSize=12;html=1;rounded=0;entryX=0;entryY=0.75;entryDx=0;entryDy=0;exitX=1;exitY=0.5;exitDx=0;exitDy=0;entryPerimeter=0;" parent="1" source="4e69PK49C4f4pI-jG1Hq-56" target="4e69PK49C4f4pI-jG1Hq-42" edge="1">
          <mxGeometry width="160" relative="1" as="geometry">
            <mxPoint x="178" y="462" as="sourcePoint" />
            <mxPoint x="140" y="430" as="targetPoint" />
          </mxGeometry>
        </mxCell>
        <mxCell id="4e69PK49C4f4pI-jG1Hq-65" value="&amp;lt;&amp;lt;extend&amp;gt;&amp;gt;" style="edgeLabel;html=1;align=center;verticalAlign=middle;resizable=0;points=[];" parent="4e69PK49C4f4pI-jG1Hq-64" vertex="1" connectable="0">
          <mxGeometry x="-0.0443" y="3" relative="1" as="geometry">
            <mxPoint x="-1" y="-10" as="offset" />
          </mxGeometry>
        </mxCell>
        <mxCell id="4e69PK49C4f4pI-jG1Hq-67" value="전체" style="ellipse;whiteSpace=wrap;html=1;" parent="1" vertex="1">
          <mxGeometry x="261" y="575" width="40" height="40" as="geometry" />
        </mxCell>
        <mxCell id="4e69PK49C4f4pI-jG1Hq-68" style="edgeStyle=orthogonalEdgeStyle;rounded=0;orthogonalLoop=1;jettySize=auto;html=1;exitX=0;exitY=1;exitDx=0;exitDy=0;entryX=0;entryY=1;entryDx=0;entryDy=0;" parent="1" source="4e69PK49C4f4pI-jG1Hq-55" target="4e69PK49C4f4pI-jG1Hq-55" edge="1">
          <mxGeometry relative="1" as="geometry" />
        </mxCell>
        <mxCell id="4e69PK49C4f4pI-jG1Hq-71" value="" style="endArrow=open;dashed=1;endFill=0;endSize=12;html=1;rounded=0;entryX=0;entryY=1;entryDx=0;entryDy=0;exitX=1;exitY=0;exitDx=0;exitDy=0;" parent="1" source="4e69PK49C4f4pI-jG1Hq-54" target="4e69PK49C4f4pI-jG1Hq-42" edge="1">
          <mxGeometry width="160" relative="1" as="geometry">
            <mxPoint x="160" y="570" as="sourcePoint" />
            <mxPoint x="221" y="571" as="targetPoint" />
          </mxGeometry>
        </mxCell>
        <mxCell id="4e69PK49C4f4pI-jG1Hq-72" value="&amp;lt;&amp;lt;extend&amp;gt;&amp;gt;" style="edgeLabel;html=1;align=center;verticalAlign=middle;resizable=0;points=[];" parent="4e69PK49C4f4pI-jG1Hq-71" vertex="1" connectable="0">
          <mxGeometry x="-0.0443" y="3" relative="1" as="geometry">
            <mxPoint x="-3" y="3" as="offset" />
          </mxGeometry>
        </mxCell>
        <mxCell id="4e69PK49C4f4pI-jG1Hq-75" value="" style="endArrow=open;dashed=1;endFill=0;endSize=12;html=1;rounded=0;entryX=0.5;entryY=1;entryDx=0;entryDy=0;" parent="1" source="4e69PK49C4f4pI-jG1Hq-55" target="4e69PK49C4f4pI-jG1Hq-42" edge="1">
          <mxGeometry width="160" relative="1" as="geometry">
            <mxPoint x="190" y="630" as="sourcePoint" />
            <mxPoint x="251" y="631" as="targetPoint" />
          </mxGeometry>
        </mxCell>
        <mxCell id="4e69PK49C4f4pI-jG1Hq-76" value="&amp;lt;&amp;lt;extend&amp;gt;&amp;gt;" style="edgeLabel;html=1;align=center;verticalAlign=middle;resizable=0;points=[];" parent="4e69PK49C4f4pI-jG1Hq-75" vertex="1" connectable="0">
          <mxGeometry x="-0.0443" y="3" relative="1" as="geometry">
            <mxPoint x="3" y="2" as="offset" />
          </mxGeometry>
        </mxCell>
        <mxCell id="4e69PK49C4f4pI-jG1Hq-77" value="" style="endArrow=open;dashed=1;endFill=0;endSize=12;html=1;rounded=0;entryX=1;entryY=1;entryDx=0;entryDy=0;exitX=0;exitY=0;exitDx=0;exitDy=0;" parent="1" source="4e69PK49C4f4pI-jG1Hq-67" target="4e69PK49C4f4pI-jG1Hq-42" edge="1">
          <mxGeometry width="160" relative="1" as="geometry">
            <mxPoint x="290" y="640" as="sourcePoint" />
            <mxPoint x="351" y="641" as="targetPoint" />
          </mxGeometry>
        </mxCell>
        <mxCell id="4e69PK49C4f4pI-jG1Hq-78" value="&amp;lt;&amp;lt;extend&amp;gt;&amp;gt;" style="edgeLabel;html=1;align=center;verticalAlign=middle;resizable=0;points=[];" parent="4e69PK49C4f4pI-jG1Hq-77" vertex="1" connectable="0">
          <mxGeometry x="-0.0443" y="3" relative="1" as="geometry">
            <mxPoint x="10" as="offset" />
          </mxGeometry>
        </mxCell>
      </root>
    </mxGraphModel>
  </diagram>
  <diagram name="항공편 조회 프로그램" id="hdj_IfsHCm3JEUZJZjPO">
    <mxGraphModel dx="1426" dy="837" grid="1" gridSize="10" guides="1" tooltips="1" connect="1" arrows="1" fold="1" page="1" pageScale="1" pageWidth="827" pageHeight="1169" math="0" shadow="0">
      <root>
        <mxCell id="0" />
        <mxCell id="1" parent="0" />
        <mxCell id="axn2f_gxMjBtmXNa0daS-1" value="항공편 관리 시스템" style="shape=umlFrame;whiteSpace=wrap;html=1;pointerEvents=0;width=120;height=30;" parent="1" vertex="1">
          <mxGeometry x="270" y="230" width="740" height="750" as="geometry" />
        </mxCell>
        <mxCell id="axn2f_gxMjBtmXNa0daS-2" value="회원" style="shape=umlActor;verticalLabelPosition=bottom;verticalAlign=top;html=1;" parent="1" vertex="1">
          <mxGeometry x="180" y="245" width="30" height="60" as="geometry" />
        </mxCell>
        <mxCell id="axn2f_gxMjBtmXNa0daS-3" value="비회원" style="shape=umlActor;verticalLabelPosition=bottom;verticalAlign=top;html=1;" parent="1" vertex="1">
          <mxGeometry x="180" y="680" width="30" height="60" as="geometry" />
        </mxCell>
        <mxCell id="axn2f_gxMjBtmXNa0daS-4" value="직원" style="shape=umlActor;verticalLabelPosition=bottom;verticalAlign=top;html=1;" parent="1" vertex="1">
          <mxGeometry x="180" y="490" width="30" height="60" as="geometry" />
        </mxCell>
        <mxCell id="axn2f_gxMjBtmXNa0daS-5" value="관리자" style="shape=umlActor;verticalLabelPosition=bottom;verticalAlign=top;html=1;" parent="1" vertex="1">
          <mxGeometry x="1080" y="470" width="30" height="60" as="geometry" />
        </mxCell>
        <mxCell id="axn2f_gxMjBtmXNa0daS-6" value="로그인" style="ellipse;whiteSpace=wrap;html=1;" parent="1" vertex="1">
          <mxGeometry x="812" y="270" width="110" height="50" as="geometry" />
        </mxCell>
        <mxCell id="axn2f_gxMjBtmXNa0daS-8" value="회원가입" style="ellipse;whiteSpace=wrap;html=1;" parent="1" vertex="1">
          <mxGeometry x="390" y="680" width="110" height="50" as="geometry" />
        </mxCell>
        <mxCell id="axn2f_gxMjBtmXNa0daS-9" value="항공편 조회" style="ellipse;whiteSpace=wrap;html=1;" parent="1" vertex="1">
          <mxGeometry x="590" y="510" width="110" height="50" as="geometry" />
        </mxCell>
        <mxCell id="axn2f_gxMjBtmXNa0daS-10" value="회원관리" style="ellipse;whiteSpace=wrap;html=1;" parent="1" vertex="1">
          <mxGeometry x="777" y="710" width="110" height="50" as="geometry" />
        </mxCell>
        <mxCell id="axn2f_gxMjBtmXNa0daS-11" value="use" style="html=1;verticalAlign=bottom;endArrow=block;curved=0;rounded=0;entryX=0;entryY=0;entryDx=0;entryDy=0;" parent="1" target="axn2f_gxMjBtmXNa0daS-9" edge="1">
          <mxGeometry width="80" relative="1" as="geometry">
            <mxPoint x="200" y="280" as="sourcePoint" />
            <mxPoint x="630" y="510" as="targetPoint" />
          </mxGeometry>
        </mxCell>
        <mxCell id="axn2f_gxMjBtmXNa0daS-12" value="use" style="html=1;verticalAlign=bottom;endArrow=block;curved=0;rounded=0;exitX=0.65;exitY=0.656;exitDx=0;exitDy=0;exitPerimeter=0;entryX=0.064;entryY=0.78;entryDx=0;entryDy=0;entryPerimeter=0;" parent="1" source="axn2f_gxMjBtmXNa0daS-3" target="axn2f_gxMjBtmXNa0daS-9" edge="1">
          <mxGeometry width="80" relative="1" as="geometry">
            <mxPoint x="580" y="760" as="sourcePoint" />
            <mxPoint x="610" y="550" as="targetPoint" />
          </mxGeometry>
        </mxCell>
        <mxCell id="axn2f_gxMjBtmXNa0daS-13" value="use" style="html=1;verticalAlign=bottom;endArrow=block;curved=0;rounded=0;exitX=0.289;exitY=0.781;exitDx=0;exitDy=0;exitPerimeter=0;entryX=1;entryY=0.5;entryDx=0;entryDy=0;" parent="1" source="axn2f_gxMjBtmXNa0daS-5" target="axn2f_gxMjBtmXNa0daS-9" edge="1">
          <mxGeometry width="80" relative="1" as="geometry">
            <mxPoint x="690" y="720" as="sourcePoint" />
            <mxPoint x="1087" y="915" as="targetPoint" />
          </mxGeometry>
        </mxCell>
        <mxCell id="axn2f_gxMjBtmXNa0daS-14" value="use" style="html=1;verticalAlign=bottom;endArrow=block;curved=0;rounded=0;entryX=0;entryY=0.4;entryDx=0;entryDy=0;entryPerimeter=0;" parent="1" source="axn2f_gxMjBtmXNa0daS-4" target="axn2f_gxMjBtmXNa0daS-9" edge="1">
          <mxGeometry x="0.4002" y="-14" width="80" relative="1" as="geometry">
            <mxPoint x="790" y="380" as="sourcePoint" />
            <mxPoint x="1187" y="575" as="targetPoint" />
            <mxPoint as="offset" />
          </mxGeometry>
        </mxCell>
        <mxCell id="axn2f_gxMjBtmXNa0daS-15" value="use" style="html=1;verticalAlign=bottom;endArrow=block;curved=0;rounded=0;exitX=0.667;exitY=0.833;exitDx=0;exitDy=0;exitPerimeter=0;" parent="1" source="axn2f_gxMjBtmXNa0daS-3" target="axn2f_gxMjBtmXNa0daS-8" edge="1">
          <mxGeometry width="80" relative="1" as="geometry">
            <mxPoint x="370" y="780" as="sourcePoint" />
            <mxPoint x="767" y="975" as="targetPoint" />
          </mxGeometry>
        </mxCell>
        <mxCell id="rejyqs1OfHgBggtRqZwH-1" value="" style="endArrow=open;dashed=1;endFill=0;endSize=12;html=1;rounded=0;exitX=0.738;exitY=0.053;exitDx=0;exitDy=0;exitPerimeter=0;" parent="1" source="s5V88_-RurPnFElXYVf3-6" target="axn2f_gxMjBtmXNa0daS-6" edge="1">
          <mxGeometry width="160" relative="1" as="geometry">
            <mxPoint x="1060" y="550" as="sourcePoint" />
            <mxPoint x="1220" y="550" as="targetPoint" />
          </mxGeometry>
        </mxCell>
        <mxCell id="rejyqs1OfHgBggtRqZwH-2" value="&amp;lt;&amp;lt;include&amp;gt;&amp;gt;" style="edgeLabel;html=1;align=center;verticalAlign=middle;resizable=0;points=[];" parent="rejyqs1OfHgBggtRqZwH-1" vertex="1" connectable="0">
          <mxGeometry x="-0.0896" relative="1" as="geometry">
            <mxPoint as="offset" />
          </mxGeometry>
        </mxCell>
        <mxCell id="rejyqs1OfHgBggtRqZwH-3" value="등록" style="ellipse;whiteSpace=wrap;html=1;" parent="1" vertex="1">
          <mxGeometry x="350" y="859" width="40" height="40" as="geometry" />
        </mxCell>
        <mxCell id="s5V88_-RurPnFElXYVf3-1" value="항공편 관리" style="ellipse;whiteSpace=wrap;html=1;" parent="1" vertex="1">
          <mxGeometry x="380" y="780" width="110" height="50" as="geometry" />
        </mxCell>
        <mxCell id="s5V88_-RurPnFElXYVf3-2" value="삭제" style="ellipse;whiteSpace=wrap;html=1;" parent="1" vertex="1">
          <mxGeometry x="477.5" y="860" width="40" height="40" as="geometry" />
        </mxCell>
        <mxCell id="s5V88_-RurPnFElXYVf3-3" value="변경" style="ellipse;whiteSpace=wrap;html=1;" parent="1" vertex="1">
          <mxGeometry x="413.5" y="859" width="40" height="40" as="geometry" />
        </mxCell>
        <mxCell id="s5V88_-RurPnFElXYVf3-6" value="예매 관리" style="ellipse;whiteSpace=wrap;html=1;" parent="1" vertex="1">
          <mxGeometry x="680" y="340" width="110" height="50" as="geometry" />
        </mxCell>
        <mxCell id="8LyzE05kEvoI4NCqdGK4-12" value="" style="edgeStyle=orthogonalEdgeStyle;rounded=0;orthogonalLoop=1;jettySize=auto;html=1;endArrow=block;endFill=0;" parent="1" source="s5V88_-RurPnFElXYVf3-8" target="axn2f_gxMjBtmXNa0daS-10" edge="1">
          <mxGeometry relative="1" as="geometry" />
        </mxCell>
        <mxCell id="s5V88_-RurPnFElXYVf3-8" value="삭제" style="ellipse;whiteSpace=wrap;html=1;" parent="1" vertex="1">
          <mxGeometry x="877" y="810" width="40" height="40" as="geometry" />
        </mxCell>
        <mxCell id="8LyzE05kEvoI4NCqdGK4-11" value="" style="edgeStyle=orthogonalEdgeStyle;rounded=0;orthogonalLoop=1;jettySize=auto;html=1;endArrow=block;endFill=0;" parent="1" source="s5V88_-RurPnFElXYVf3-9" target="axn2f_gxMjBtmXNa0daS-10" edge="1">
          <mxGeometry relative="1" as="geometry" />
        </mxCell>
        <mxCell id="s5V88_-RurPnFElXYVf3-9" value="수정" style="ellipse;whiteSpace=wrap;html=1;" parent="1" vertex="1">
          <mxGeometry x="812" y="810" width="40" height="40" as="geometry" />
        </mxCell>
        <mxCell id="8LyzE05kEvoI4NCqdGK4-5" value="" style="edgeStyle=orthogonalEdgeStyle;rounded=0;orthogonalLoop=1;jettySize=auto;html=1;endArrow=block;endFill=0;" parent="1" source="-qL_9hfKswGplCvd_dHR-1" target="s5V88_-RurPnFElXYVf3-6" edge="1">
          <mxGeometry relative="1" as="geometry" />
        </mxCell>
        <mxCell id="-qL_9hfKswGplCvd_dHR-1" value="조회" style="ellipse;whiteSpace=wrap;html=1;" parent="1" vertex="1">
          <mxGeometry x="641" y="430" width="40" height="40" as="geometry" />
        </mxCell>
        <mxCell id="8LyzE05kEvoI4NCqdGK4-7" value="" style="edgeStyle=orthogonalEdgeStyle;rounded=0;orthogonalLoop=1;jettySize=auto;html=1;endArrow=block;endFill=0;" parent="1" source="-qL_9hfKswGplCvd_dHR-2" target="s5V88_-RurPnFElXYVf3-6" edge="1">
          <mxGeometry relative="1" as="geometry" />
        </mxCell>
        <mxCell id="-qL_9hfKswGplCvd_dHR-2" value="삭제" style="ellipse;whiteSpace=wrap;html=1;" parent="1" vertex="1">
          <mxGeometry x="787" y="430" width="40" height="40" as="geometry" />
        </mxCell>
        <mxCell id="8LyzE05kEvoI4NCqdGK4-6" value="" style="edgeStyle=orthogonalEdgeStyle;rounded=0;orthogonalLoop=1;jettySize=auto;html=1;endArrow=block;endFill=0;" parent="1" source="-qL_9hfKswGplCvd_dHR-3" target="s5V88_-RurPnFElXYVf3-6" edge="1">
          <mxGeometry relative="1" as="geometry" />
        </mxCell>
        <mxCell id="-qL_9hfKswGplCvd_dHR-3" value="수정" style="ellipse;whiteSpace=wrap;html=1;" parent="1" vertex="1">
          <mxGeometry x="739" y="430" width="40" height="40" as="geometry" />
        </mxCell>
        <mxCell id="zlK5qq4Zs53b4qo4vLOC-1" value="use" style="html=1;verticalAlign=bottom;endArrow=block;curved=0;rounded=0;entryX=0.041;entryY=0.22;entryDx=0;entryDy=0;entryPerimeter=0;" parent="1" target="s5V88_-RurPnFElXYVf3-6" edge="1">
          <mxGeometry width="80" relative="1" as="geometry">
            <mxPoint x="200" y="280" as="sourcePoint" />
            <mxPoint x="1004" y="680" as="targetPoint" />
          </mxGeometry>
        </mxCell>
        <mxCell id="zlK5qq4Zs53b4qo4vLOC-2" value="use" style="html=1;verticalAlign=bottom;endArrow=block;curved=0;rounded=0;" parent="1" source="axn2f_gxMjBtmXNa0daS-5" target="s5V88_-RurPnFElXYVf3-6" edge="1">
          <mxGeometry width="80" relative="1" as="geometry">
            <mxPoint x="860" y="600" as="sourcePoint" />
            <mxPoint x="1314" y="840" as="targetPoint" />
          </mxGeometry>
        </mxCell>
        <mxCell id="zlK5qq4Zs53b4qo4vLOC-3" value="use" style="html=1;verticalAlign=bottom;endArrow=block;curved=0;rounded=0;" parent="1" source="axn2f_gxMjBtmXNa0daS-4" target="s5V88_-RurPnFElXYVf3-6" edge="1">
          <mxGeometry width="80" relative="1" as="geometry">
            <mxPoint x="330" y="770" as="sourcePoint" />
            <mxPoint x="784" y="1010" as="targetPoint" />
          </mxGeometry>
        </mxCell>
        <mxCell id="zlK5qq4Zs53b4qo4vLOC-4" value="use" style="html=1;verticalAlign=bottom;endArrow=block;curved=0;rounded=0;exitX=0;exitY=1;exitDx=0;exitDy=0;exitPerimeter=0;entryX=1;entryY=0.4;entryDx=0;entryDy=0;entryPerimeter=0;" parent="1" source="axn2f_gxMjBtmXNa0daS-5" target="axn2f_gxMjBtmXNa0daS-10" edge="1">
          <mxGeometry width="80" relative="1" as="geometry">
            <mxPoint x="1175" y="864" as="sourcePoint" />
            <mxPoint x="870" y="730" as="targetPoint" />
          </mxGeometry>
        </mxCell>
        <mxCell id="zlK5qq4Zs53b4qo4vLOC-5" value="use" style="html=1;verticalAlign=bottom;endArrow=block;curved=0;rounded=0;exitX=0;exitY=1;exitDx=0;exitDy=0;exitPerimeter=0;entryX=1;entryY=0;entryDx=0;entryDy=0;" parent="1" source="axn2f_gxMjBtmXNa0daS-5" target="s5V88_-RurPnFElXYVf3-1" edge="1">
          <mxGeometry width="80" relative="1" as="geometry">
            <mxPoint x="1225" y="834" as="sourcePoint" />
            <mxPoint x="920" y="700" as="targetPoint" />
          </mxGeometry>
        </mxCell>
        <mxCell id="agYcVcZSnAjEy-LRASBU-22" value="" style="edgeStyle=orthogonalEdgeStyle;rounded=0;orthogonalLoop=1;jettySize=auto;html=1;endArrow=block;endFill=0;exitX=0.5;exitY=0;exitDx=0;exitDy=0;" parent="1" source="zlK5qq4Zs53b4qo4vLOC-6" target="axn2f_gxMjBtmXNa0daS-9" edge="1">
          <mxGeometry relative="1" as="geometry">
            <Array as="points">
              <mxPoint x="582" y="590" />
              <mxPoint x="645" y="590" />
            </Array>
          </mxGeometry>
        </mxCell>
        <mxCell id="zlK5qq4Zs53b4qo4vLOC-6" value="위치" style="ellipse;whiteSpace=wrap;html=1;" parent="1" vertex="1">
          <mxGeometry x="562" y="610" width="40" height="40" as="geometry" />
        </mxCell>
        <mxCell id="agYcVcZSnAjEy-LRASBU-21" value="" style="edgeStyle=orthogonalEdgeStyle;rounded=0;orthogonalLoop=1;jettySize=auto;html=1;endArrow=block;endFill=0;" parent="1" source="zlK5qq4Zs53b4qo4vLOC-7" target="axn2f_gxMjBtmXNa0daS-9" edge="1">
          <mxGeometry relative="1" as="geometry" />
        </mxCell>
        <mxCell id="zlK5qq4Zs53b4qo4vLOC-7" value="날짜" style="ellipse;whiteSpace=wrap;html=1;" parent="1" vertex="1">
          <mxGeometry x="625" y="610" width="40" height="40" as="geometry" />
        </mxCell>
        <mxCell id="agYcVcZSnAjEy-LRASBU-19" value="" style="edgeStyle=orthogonalEdgeStyle;rounded=0;orthogonalLoop=1;jettySize=auto;html=1;endArrow=block;endFill=0;" parent="1" source="zlK5qq4Zs53b4qo4vLOC-8" target="axn2f_gxMjBtmXNa0daS-9" edge="1">
          <mxGeometry relative="1" as="geometry">
            <Array as="points">
              <mxPoint x="710" y="590" />
              <mxPoint x="645" y="590" />
            </Array>
          </mxGeometry>
        </mxCell>
        <mxCell id="zlK5qq4Zs53b4qo4vLOC-8" value="탑승객&lt;div&gt;수&lt;/div&gt;" style="ellipse;whiteSpace=wrap;html=1;" parent="1" vertex="1">
          <mxGeometry x="690" y="610" width="40" height="40" as="geometry" />
        </mxCell>
        <mxCell id="8LyzE05kEvoI4NCqdGK4-10" value="" style="edgeStyle=orthogonalEdgeStyle;rounded=0;orthogonalLoop=1;jettySize=auto;html=1;endArrow=block;endFill=0;" parent="1" source="agYcVcZSnAjEy-LRASBU-1" target="axn2f_gxMjBtmXNa0daS-10" edge="1">
          <mxGeometry relative="1" as="geometry" />
        </mxCell>
        <mxCell id="agYcVcZSnAjEy-LRASBU-1" value="조회" style="ellipse;whiteSpace=wrap;html=1;" parent="1" vertex="1">
          <mxGeometry x="742" y="810" width="40" height="40" as="geometry" />
        </mxCell>
        <mxCell id="agYcVcZSnAjEy-LRASBU-3" value="일반&lt;div&gt;계정&lt;/div&gt;" style="ellipse;whiteSpace=wrap;html=1;" parent="1" vertex="1">
          <mxGeometry x="674" y="884" width="40" height="40" as="geometry" />
        </mxCell>
        <mxCell id="agYcVcZSnAjEy-LRASBU-4" value="나의&lt;div&gt;정보&lt;/div&gt;" style="ellipse;whiteSpace=wrap;html=1;" parent="1" vertex="1">
          <mxGeometry x="641" y="819" width="40" height="40" as="geometry" />
        </mxCell>
        <mxCell id="agYcVcZSnAjEy-LRASBU-5" value="" style="endArrow=open;dashed=1;endFill=0;endSize=12;html=1;rounded=0;entryX=0;entryY=0.75;entryDx=0;entryDy=0;exitX=1;exitY=0.5;exitDx=0;exitDy=0;entryPerimeter=0;" parent="1" source="agYcVcZSnAjEy-LRASBU-4" target="agYcVcZSnAjEy-LRASBU-1" edge="1">
          <mxGeometry width="160" relative="1" as="geometry">
            <mxPoint x="729" y="771" as="sourcePoint" />
            <mxPoint x="691" y="739" as="targetPoint" />
          </mxGeometry>
        </mxCell>
        <mxCell id="agYcVcZSnAjEy-LRASBU-6" value="&amp;lt;&amp;lt;extend&amp;gt;&amp;gt;" style="edgeLabel;html=1;align=center;verticalAlign=middle;resizable=0;points=[];" parent="agYcVcZSnAjEy-LRASBU-5" vertex="1" connectable="0">
          <mxGeometry x="-0.0443" y="3" relative="1" as="geometry">
            <mxPoint x="-1" y="-10" as="offset" />
          </mxGeometry>
        </mxCell>
        <mxCell id="agYcVcZSnAjEy-LRASBU-7" value="전체" style="ellipse;whiteSpace=wrap;html=1;" parent="1" vertex="1">
          <mxGeometry x="812" y="884" width="40" height="40" as="geometry" />
        </mxCell>
        <mxCell id="agYcVcZSnAjEy-LRASBU-8" style="edgeStyle=orthogonalEdgeStyle;rounded=0;orthogonalLoop=1;jettySize=auto;html=1;exitX=0;exitY=1;exitDx=0;exitDy=0;entryX=0;entryY=1;entryDx=0;entryDy=0;" parent="1" edge="1">
          <mxGeometry relative="1" as="geometry">
            <mxPoint x="748" y="943" as="sourcePoint" />
            <mxPoint x="748" y="943" as="targetPoint" />
          </mxGeometry>
        </mxCell>
        <mxCell id="agYcVcZSnAjEy-LRASBU-9" value="" style="endArrow=open;dashed=1;endFill=0;endSize=12;html=1;rounded=0;entryX=0;entryY=1;entryDx=0;entryDy=0;exitX=1;exitY=0;exitDx=0;exitDy=0;" parent="1" source="agYcVcZSnAjEy-LRASBU-3" target="agYcVcZSnAjEy-LRASBU-1" edge="1">
          <mxGeometry width="160" relative="1" as="geometry">
            <mxPoint x="711" y="879" as="sourcePoint" />
            <mxPoint x="772" y="880" as="targetPoint" />
          </mxGeometry>
        </mxCell>
        <mxCell id="agYcVcZSnAjEy-LRASBU-10" value="&amp;lt;&amp;lt;extend&amp;gt;&amp;gt;" style="edgeLabel;html=1;align=center;verticalAlign=middle;resizable=0;points=[];" parent="agYcVcZSnAjEy-LRASBU-9" vertex="1" connectable="0">
          <mxGeometry x="-0.0443" y="3" relative="1" as="geometry">
            <mxPoint x="-3" y="3" as="offset" />
          </mxGeometry>
        </mxCell>
        <mxCell id="agYcVcZSnAjEy-LRASBU-11" value="" style="endArrow=open;dashed=1;endFill=0;endSize=12;html=1;rounded=0;entryX=0.5;entryY=1;entryDx=0;entryDy=0;" parent="1" target="agYcVcZSnAjEy-LRASBU-1" edge="1">
          <mxGeometry width="160" relative="1" as="geometry">
            <mxPoint x="762" y="909" as="sourcePoint" />
            <mxPoint x="802" y="940" as="targetPoint" />
          </mxGeometry>
        </mxCell>
        <mxCell id="agYcVcZSnAjEy-LRASBU-12" value="&amp;lt;&amp;lt;extend&amp;gt;&amp;gt;" style="edgeLabel;html=1;align=center;verticalAlign=middle;resizable=0;points=[];" parent="agYcVcZSnAjEy-LRASBU-11" vertex="1" connectable="0">
          <mxGeometry x="-0.0443" y="3" relative="1" as="geometry">
            <mxPoint x="3" y="2" as="offset" />
          </mxGeometry>
        </mxCell>
        <mxCell id="agYcVcZSnAjEy-LRASBU-13" value="" style="endArrow=open;dashed=1;endFill=0;endSize=12;html=1;rounded=0;entryX=1;entryY=1;entryDx=0;entryDy=0;exitX=0;exitY=0;exitDx=0;exitDy=0;" parent="1" source="agYcVcZSnAjEy-LRASBU-7" target="agYcVcZSnAjEy-LRASBU-1" edge="1">
          <mxGeometry width="160" relative="1" as="geometry">
            <mxPoint x="841" y="949" as="sourcePoint" />
            <mxPoint x="902" y="950" as="targetPoint" />
          </mxGeometry>
        </mxCell>
        <mxCell id="agYcVcZSnAjEy-LRASBU-14" value="&amp;lt;&amp;lt;extend&amp;gt;&amp;gt;" style="edgeLabel;html=1;align=center;verticalAlign=middle;resizable=0;points=[];" parent="agYcVcZSnAjEy-LRASBU-13" vertex="1" connectable="0">
          <mxGeometry x="-0.0443" y="3" relative="1" as="geometry">
            <mxPoint x="10" as="offset" />
          </mxGeometry>
        </mxCell>
        <mxCell id="agYcVcZSnAjEy-LRASBU-15" value="직원&lt;div&gt;계정&lt;/div&gt;" style="ellipse;whiteSpace=wrap;html=1;" parent="1" vertex="1">
          <mxGeometry x="742" y="910" width="40" height="40" as="geometry" />
        </mxCell>
        <mxCell id="8LyzE05kEvoI4NCqdGK4-1" value="use" style="html=1;verticalAlign=bottom;endArrow=block;curved=0;rounded=0;entryX=0.2;entryY=0.008;entryDx=0;entryDy=0;entryPerimeter=0;" parent="1" target="agYcVcZSnAjEy-LRASBU-4" edge="1">
          <mxGeometry width="80" relative="1" as="geometry">
            <mxPoint x="200" y="280" as="sourcePoint" />
            <mxPoint x="601" y="560" as="targetPoint" />
          </mxGeometry>
        </mxCell>
        <mxCell id="8LyzE05kEvoI4NCqdGK4-9" value="" style="edgeStyle=orthogonalEdgeStyle;rounded=0;orthogonalLoop=1;jettySize=auto;html=1;endArrow=block;endFill=0;" parent="1" source="8LyzE05kEvoI4NCqdGK4-8" target="s5V88_-RurPnFElXYVf3-6" edge="1">
          <mxGeometry relative="1" as="geometry" />
        </mxCell>
        <mxCell id="8LyzE05kEvoI4NCqdGK4-8" value="등록" style="ellipse;whiteSpace=wrap;html=1;" parent="1" vertex="1">
          <mxGeometry x="690" y="430" width="40" height="40" as="geometry" />
        </mxCell>
        <mxCell id="hEI6BFZmx5euyt1VqKre-1" value="관리자 로그인" style="ellipse;whiteSpace=wrap;html=1;" vertex="1" parent="1">
          <mxGeometry x="270" y="1020" width="110" height="50" as="geometry" />
        </mxCell>
      </root>
    </mxGraphModel>
  </diagram>
  <diagram id="Ou2Y76iy9yeP6JP3MSXJ" name="명세서">
    <mxGraphModel dx="2078" dy="1785" grid="1" gridSize="10" guides="1" tooltips="1" connect="1" arrows="1" fold="1" page="0" pageScale="1" pageWidth="827" pageHeight="1169" math="0" shadow="0">
      <root>
        <mxCell id="0" />
        <mxCell id="1" parent="0" />
        <mxCell id="d-kg8OgVA_0q-SpX9qxt-2" value="약관동의&lt;div&gt;본인인증&lt;/div&gt;&lt;div&gt;한글 이름&lt;/div&gt;&lt;div&gt;영어 이름&lt;/div&gt;&lt;div&gt;이이디&lt;/div&gt;&lt;div&gt;비밀번호&lt;/div&gt;&lt;div&gt;생년월인&lt;/div&gt;&lt;div&gt;성별&lt;/div&gt;&lt;div&gt;이메일주소&lt;/div&gt;&lt;div&gt;휴대전화번호&lt;/div&gt;&lt;div&gt;거주국가&lt;/div&gt;" style="text;html=1;align=center;verticalAlign=middle;resizable=0;points=[];autosize=1;strokeColor=none;fillColor=none;fontSize=16;" vertex="1" parent="1">
          <mxGeometry x="550" y="-110" width="106" height="223" as="geometry" />
        </mxCell>
        <mxCell id="XE_Ec_hiV0-5Nvh7rK8N-1" value="&lt;div&gt;&amp;lt;&amp;lt;유스케이스 명세서&amp;gt;&amp;gt;&lt;/div&gt;유스케이스명 : 회원가입" style="shape=table;startSize=40;container=1;collapsible=1;childLayout=tableLayout;fixedRows=1;rowLines=0;fontStyle=1;align=center;resizeLast=1;html=1;" vertex="1" parent="1">
          <mxGeometry x="-110" y="-470" width="630" height="1000" as="geometry" />
        </mxCell>
        <mxCell id="XE_Ec_hiV0-5Nvh7rK8N-2" value="" style="shape=tableRow;horizontal=0;startSize=0;swimlaneHead=0;swimlaneBody=0;fillColor=none;collapsible=0;dropTarget=0;points=[[0,0.5],[1,0.5]];portConstraint=eastwest;top=0;left=0;right=0;bottom=1;strokeColor=default;verticalAlign=middle;fontStyle=0" vertex="1" parent="XE_Ec_hiV0-5Nvh7rK8N-1">
          <mxGeometry y="40" width="630" height="30" as="geometry" />
        </mxCell>
        <mxCell id="XE_Ec_hiV0-5Nvh7rK8N-3" value="목표" style="shape=partialRectangle;connectable=0;fillColor=none;top=0;left=0;bottom=0;right=0;fontStyle=1;overflow=hidden;whiteSpace=wrap;html=1;" vertex="1" parent="XE_Ec_hiV0-5Nvh7rK8N-2">
          <mxGeometry width="60" height="30" as="geometry">
            <mxRectangle width="60" height="30" as="alternateBounds" />
          </mxGeometry>
        </mxCell>
        <mxCell id="XE_Ec_hiV0-5Nvh7rK8N-4" value="&lt;span style=&quot;font-weight: 400; text-wrap: nowrap;&quot;&gt;비회원이 회원가입을 할 수 있도록 시스템을 통해 회원가입 절차를 완료한다&lt;/span&gt;" style="shape=partialRectangle;connectable=0;fillColor=none;top=0;left=0;bottom=0;right=0;align=left;spacingLeft=6;fontStyle=1;overflow=hidden;whiteSpace=wrap;html=1;" vertex="1" parent="XE_Ec_hiV0-5Nvh7rK8N-2">
          <mxGeometry x="60" width="570" height="30" as="geometry">
            <mxRectangle width="570" height="30" as="alternateBounds" />
          </mxGeometry>
        </mxCell>
        <mxCell id="XE_Ec_hiV0-5Nvh7rK8N-5" value="" style="shape=tableRow;horizontal=0;startSize=0;swimlaneHead=0;swimlaneBody=0;fillColor=none;collapsible=0;dropTarget=0;points=[[0,0.5],[1,0.5]];portConstraint=eastwest;top=0;left=0;right=0;bottom=1;" vertex="1" parent="XE_Ec_hiV0-5Nvh7rK8N-1">
          <mxGeometry y="70" width="630" height="30" as="geometry" />
        </mxCell>
        <mxCell id="XE_Ec_hiV0-5Nvh7rK8N-6" value="엑터" style="shape=partialRectangle;connectable=0;fillColor=none;top=0;left=0;bottom=0;right=0;fontStyle=1;overflow=hidden;whiteSpace=wrap;html=1;" vertex="1" parent="XE_Ec_hiV0-5Nvh7rK8N-5">
          <mxGeometry width="60" height="30" as="geometry">
            <mxRectangle width="60" height="30" as="alternateBounds" />
          </mxGeometry>
        </mxCell>
        <mxCell id="XE_Ec_hiV0-5Nvh7rK8N-7" value="비회원" style="shape=partialRectangle;connectable=0;fillColor=none;top=0;left=0;bottom=0;right=0;align=left;spacingLeft=6;fontStyle=0;overflow=hidden;whiteSpace=wrap;html=1;" vertex="1" parent="XE_Ec_hiV0-5Nvh7rK8N-5">
          <mxGeometry x="60" width="570" height="30" as="geometry">
            <mxRectangle width="570" height="30" as="alternateBounds" />
          </mxGeometry>
        </mxCell>
        <mxCell id="XE_Ec_hiV0-5Nvh7rK8N-8" value="" style="shape=tableRow;horizontal=0;startSize=0;swimlaneHead=0;swimlaneBody=0;fillColor=none;collapsible=0;dropTarget=0;points=[[0,0.5],[1,0.5]];portConstraint=eastwest;top=0;left=0;right=0;bottom=1;" vertex="1" parent="XE_Ec_hiV0-5Nvh7rK8N-1">
          <mxGeometry y="100" width="630" height="30" as="geometry" />
        </mxCell>
        <mxCell id="XE_Ec_hiV0-5Nvh7rK8N-9" value="사전 조건" style="shape=partialRectangle;connectable=0;fillColor=none;top=0;left=0;bottom=0;right=0;fontStyle=1;overflow=hidden;whiteSpace=wrap;html=1;" vertex="1" parent="XE_Ec_hiV0-5Nvh7rK8N-8">
          <mxGeometry width="60" height="30" as="geometry">
            <mxRectangle width="60" height="30" as="alternateBounds" />
          </mxGeometry>
        </mxCell>
        <mxCell id="XE_Ec_hiV0-5Nvh7rK8N-10" value="메인페이지에서 회원가입 버튼을 클릭하여 회원가입 페이지로 이동한다" style="shape=partialRectangle;connectable=0;fillColor=none;top=0;left=0;bottom=0;right=0;align=left;spacingLeft=6;fontStyle=0;overflow=hidden;whiteSpace=wrap;html=1;" vertex="1" parent="XE_Ec_hiV0-5Nvh7rK8N-8">
          <mxGeometry x="60" width="570" height="30" as="geometry">
            <mxRectangle width="570" height="30" as="alternateBounds" />
          </mxGeometry>
        </mxCell>
        <mxCell id="XE_Ec_hiV0-5Nvh7rK8N-11" value="" style="shape=tableRow;horizontal=0;startSize=0;swimlaneHead=0;swimlaneBody=0;fillColor=none;collapsible=0;dropTarget=0;points=[[0,0.5],[1,0.5]];portConstraint=eastwest;top=0;left=0;right=0;bottom=1;" vertex="1" parent="XE_Ec_hiV0-5Nvh7rK8N-1">
          <mxGeometry y="130" width="630" height="30" as="geometry" />
        </mxCell>
        <mxCell id="XE_Ec_hiV0-5Nvh7rK8N-12" value="사후 처리" style="shape=partialRectangle;connectable=0;fillColor=none;top=0;left=0;bottom=0;right=0;fontStyle=1;overflow=hidden;whiteSpace=wrap;html=1;" vertex="1" parent="XE_Ec_hiV0-5Nvh7rK8N-11">
          <mxGeometry width="60" height="30" as="geometry">
            <mxRectangle width="60" height="30" as="alternateBounds" />
          </mxGeometry>
        </mxCell>
        <mxCell id="XE_Ec_hiV0-5Nvh7rK8N-13" value="회원 정상 가입 이후 로그인 페이지로 이동" style="shape=partialRectangle;connectable=0;fillColor=none;top=0;left=0;bottom=0;right=0;align=left;spacingLeft=6;fontStyle=0;overflow=hidden;whiteSpace=wrap;html=1;" vertex="1" parent="XE_Ec_hiV0-5Nvh7rK8N-11">
          <mxGeometry x="60" width="570" height="30" as="geometry">
            <mxRectangle width="570" height="30" as="alternateBounds" />
          </mxGeometry>
        </mxCell>
        <mxCell id="XE_Ec_hiV0-5Nvh7rK8N-14" value="" style="shape=tableRow;horizontal=0;startSize=0;swimlaneHead=0;swimlaneBody=0;fillColor=none;collapsible=0;dropTarget=0;points=[[0,0.5],[1,0.5]];portConstraint=eastwest;top=0;left=0;right=0;bottom=1;" vertex="1" parent="XE_Ec_hiV0-5Nvh7rK8N-1">
          <mxGeometry y="160" width="630" height="320" as="geometry" />
        </mxCell>
        <mxCell id="XE_Ec_hiV0-5Nvh7rK8N-15" value="기본흐름" style="shape=partialRectangle;connectable=0;fillColor=none;top=0;left=0;bottom=0;right=0;fontStyle=1;overflow=hidden;whiteSpace=wrap;html=1;" vertex="1" parent="XE_Ec_hiV0-5Nvh7rK8N-14">
          <mxGeometry width="60" height="320" as="geometry">
            <mxRectangle width="60" height="320" as="alternateBounds" />
          </mxGeometry>
        </mxCell>
        <mxCell id="XE_Ec_hiV0-5Nvh7rK8N-16" value="&lt;div style=&quot;text-wrap: nowrap;&quot;&gt;&lt;div&gt;1 비회원이 약관 동의 버튼을 클릭한다.&lt;/div&gt;&lt;div&gt;2 비회원이 휴대전화 본인 인증을 클릭한다&lt;/div&gt;&lt;div&gt;3 시스템은 본인인증 팝업 창을 표시한다&lt;/div&gt;&lt;div&gt;4 팝업창에 개인정보(이름/ 주민번호/ 전화번호/ 보안문자 등)를 입력한다&lt;/div&gt;&lt;div&gt;5 시스템은 해당 정보로 인증코드를 전송한다&lt;/div&gt;&lt;div&gt;6 시스템은 인증확인 처리를 한 뒤 회원정보 등록 페이지로 이동한다&lt;/div&gt;&lt;div&gt;7 비회원은 회원정보(아이디)를 입력한다&lt;/div&gt;&lt;div&gt;8 비회원은 아이디 중복확인 버튼을 클릭한다&lt;/div&gt;&lt;div&gt;9 시스템은 아이디 중복처리를 한 뒤 사용가능 확인 메시지를 전달한다&lt;/div&gt;&lt;div&gt;10&lt;span style=&quot;background-color: transparent; color: light-dark(rgb(0, 0, 0), rgb(255, 255, 255));&quot;&gt;&amp;nbsp;비회원은 회원정보(비밀번호)를 입력한다&lt;/span&gt;&lt;/div&gt;&lt;div&gt;&lt;span style=&quot;background-color: transparent; color: light-dark(rgb(0, 0, 0), rgb(255, 255, 255));&quot;&gt;11 시스템은 비밀번호 조건일치 확인 처리를 한다&lt;/span&gt;&lt;/div&gt;&lt;div&gt;&lt;span style=&quot;background-color: transparent; color: light-dark(rgb(0, 0, 0), rgb(255, 255, 255));&quot;&gt;12 비회원은 &#39;비밀번호 확인&#39; 란에 설정한 비밀번호를 재입력한다&lt;/span&gt;&lt;/div&gt;&lt;div&gt;&lt;span style=&quot;background-color: transparent; color: light-dark(rgb(0, 0, 0), rgb(255, 255, 255));&quot;&gt;13 시스템은 비회원이 입력한 &#39;비밀번호&#39;의 내용과 &#39;비밀번호 확인&#39;란의 내용이 일치하는지 확인한다&lt;/span&gt;&lt;/div&gt;&lt;div&gt;&lt;span style=&quot;background-color: transparent; color: light-dark(rgb(0, 0, 0), rgb(255, 255, 255));&quot;&gt;14 비회원은 회원정보(한글 이름/ 영문 이름/ 이메일)를 입력한다&lt;/span&gt;&lt;/div&gt;&lt;div&gt;15 시스템은 이메일이 올바른 형식인지 확인한다&lt;/div&gt;&lt;div&gt;16 비회원은 회원가입 버튼을 클릭한다&lt;/div&gt;&lt;div&gt;17 시스템은 회원가입 처리 이후 회원가입 완료 메시지를 전달한다&lt;/div&gt;&lt;div&gt;18 비회원은 메시지 확인 버튼을 클릭한다&lt;/div&gt;&lt;div&gt;19 시스템은 로그인 페이지로 이동한다&lt;/div&gt;&lt;div&gt;&lt;br&gt;&lt;/div&gt;&lt;/div&gt;" style="shape=partialRectangle;connectable=0;fillColor=none;top=0;left=0;bottom=0;right=0;align=left;spacingLeft=6;fontStyle=0;overflow=hidden;whiteSpace=wrap;html=1;" vertex="1" parent="XE_Ec_hiV0-5Nvh7rK8N-14">
          <mxGeometry x="60" width="570" height="320" as="geometry">
            <mxRectangle width="570" height="320" as="alternateBounds" />
          </mxGeometry>
        </mxCell>
        <mxCell id="XE_Ec_hiV0-5Nvh7rK8N-17" value="" style="shape=tableRow;horizontal=0;startSize=0;swimlaneHead=0;swimlaneBody=0;fillColor=none;collapsible=0;dropTarget=0;points=[[0,0.5],[1,0.5]];portConstraint=eastwest;top=0;left=0;right=0;bottom=1;" vertex="1" parent="XE_Ec_hiV0-5Nvh7rK8N-1">
          <mxGeometry y="480" width="630" height="130" as="geometry" />
        </mxCell>
        <mxCell id="XE_Ec_hiV0-5Nvh7rK8N-18" value="대안흐름" style="shape=partialRectangle;connectable=0;fillColor=none;top=0;left=0;bottom=0;right=0;fontStyle=1;overflow=hidden;whiteSpace=wrap;html=1;" vertex="1" parent="XE_Ec_hiV0-5Nvh7rK8N-17">
          <mxGeometry width="60" height="130" as="geometry">
            <mxRectangle width="60" height="130" as="alternateBounds" />
          </mxGeometry>
        </mxCell>
        <mxCell id="XE_Ec_hiV0-5Nvh7rK8N-19" value="&lt;div&gt;취소 버튼를 입력하면 메인 화면으로 이동&lt;/div&gt;" style="shape=partialRectangle;connectable=0;fillColor=none;top=0;left=0;bottom=0;right=0;align=left;spacingLeft=6;fontStyle=0;overflow=hidden;whiteSpace=wrap;html=1;" vertex="1" parent="XE_Ec_hiV0-5Nvh7rK8N-17">
          <mxGeometry x="60" width="570" height="130" as="geometry">
            <mxRectangle width="570" height="130" as="alternateBounds" />
          </mxGeometry>
        </mxCell>
        <mxCell id="XE_Ec_hiV0-5Nvh7rK8N-20" value="" style="shape=tableRow;horizontal=0;startSize=0;swimlaneHead=0;swimlaneBody=0;fillColor=none;collapsible=0;dropTarget=0;points=[[0,0.5],[1,0.5]];portConstraint=eastwest;top=0;left=0;right=0;bottom=1;" vertex="1" parent="XE_Ec_hiV0-5Nvh7rK8N-1">
          <mxGeometry y="610" width="630" height="390" as="geometry" />
        </mxCell>
        <mxCell id="XE_Ec_hiV0-5Nvh7rK8N-21" value="예외흐름" style="shape=partialRectangle;connectable=0;fillColor=none;top=0;left=0;bottom=0;right=0;fontStyle=1;overflow=hidden;whiteSpace=wrap;html=1;" vertex="1" parent="XE_Ec_hiV0-5Nvh7rK8N-20">
          <mxGeometry width="60" height="390" as="geometry">
            <mxRectangle width="60" height="390" as="alternateBounds" />
          </mxGeometry>
        </mxCell>
        <mxCell id="XE_Ec_hiV0-5Nvh7rK8N-22" value="&lt;div style=&quot;text-wrap: nowrap;&quot;&gt;1a 약관동의에 체크하지 않은 경우&lt;/div&gt;&lt;div style=&quot;text-wrap: nowrap;&quot;&gt;&lt;span style=&quot;white-space: pre;&quot;&gt;&#x9;&lt;/span&gt;시스템은 &#39;약관동의는 필수입니다&#39; 라는 메시지를 비회원에게 전달&amp;nbsp;&lt;/div&gt;&lt;div style=&quot;text-wrap: nowrap;&quot;&gt;&lt;br&gt;&lt;/div&gt;&lt;div style=&quot;text-wrap: nowrap;&quot;&gt;1b 본인인증 시 실명확인이 안 되는 경우&lt;/div&gt;&lt;div style=&quot;text-wrap: nowrap;&quot;&gt;&lt;span style=&quot;white-space: pre;&quot;&gt;&#x9;&lt;/span&gt;시스템은 &#39;정보를 재확인 후 입력해주세요&#39; 라는 메시지를 전달&lt;br&gt;&lt;/div&gt;&lt;div style=&quot;text-wrap: nowrap;&quot;&gt;&lt;br&gt;&lt;/div&gt;&lt;div style=&quot;text-wrap: nowrap;&quot;&gt;1c 본인인증 시 만 14세 미만인 경우&lt;/div&gt;&lt;div style=&quot;text-wrap: nowrap;&quot;&gt;&lt;span style=&quot;white-space: pre;&quot;&gt;&#x9;&lt;/span&gt;시스템은 &#39;만 14세 미만은 회원가입이 불가능합니다&#39; 라는 메시지를 전달&lt;br&gt;&lt;/div&gt;&lt;div style=&quot;text-wrap: nowrap;&quot;&gt;&lt;br&gt;&lt;/div&gt;&lt;div style=&quot;text-wrap: nowrap;&quot;&gt;1d 인증코드 입력 시 시간 만료된 경우 (3분?)&lt;/div&gt;&lt;div style=&quot;text-wrap: nowrap;&quot;&gt;&lt;span style=&quot;white-space: pre;&quot;&gt;&#x9;&lt;/span&gt;시스템은 &#39;시간이 초과되었습니다&#39; 라는 메시지를 전달&lt;br&gt;&lt;/div&gt;&lt;div style=&quot;text-wrap: nowrap;&quot;&gt;&lt;span style=&quot;background-color: transparent; color: light-dark(rgb(0, 0, 0), rgb(255, 255, 255));&quot;&gt;&lt;br&gt;&lt;/span&gt;&lt;/div&gt;&lt;div style=&quot;text-wrap: nowrap;&quot;&gt;&lt;span style=&quot;background-color: transparent; color: light-dark(rgb(0, 0, 0), rgb(255, 255, 255));&quot;&gt;1e 동일한 아이디가 있는경우&lt;/span&gt;&lt;/div&gt;&lt;div style=&quot;text-wrap: nowrap;&quot;&gt;&lt;span style=&quot;white-space-collapse: preserve;&quot;&gt;&#x9;&lt;/span&gt;시스템은 &#39;동일한 아이디가 있습니다&#39; 라는 메시지를 비회원에게 전달&lt;br&gt;&lt;/div&gt;&lt;div style=&quot;text-wrap: nowrap;&quot;&gt;&lt;br&gt;&lt;/div&gt;&lt;div style=&quot;text-wrap: nowrap;&quot;&gt;1f 비밀번호 조건에 부합하지 않는 경우&lt;/div&gt;&lt;div style=&quot;text-wrap: nowrap;&quot;&gt;&lt;span style=&quot;white-space: pre;&quot;&gt;&#x9;&lt;/span&gt;시스템은 &#39;조건에 알맞은 비밀번호를 설정해주세요&#39; 라는 메시지를 비회원에게 전달&lt;br&gt;&lt;/div&gt;&lt;div style=&quot;text-wrap: nowrap;&quot;&gt;&lt;br&gt;&lt;/div&gt;&lt;div style=&quot;text-wrap: nowrap;&quot;&gt;1g&amp;nbsp;&amp;nbsp;&lt;span style=&quot;background-color: transparent; color: light-dark(rgb(0, 0, 0), rgb(255, 255, 255));&quot;&gt;&#39;비밀번호&#39;의 내용과 &#39;비밀번호 확인&#39;란의 내용이 일치하지 않는 경우&lt;/span&gt;&lt;/div&gt;&lt;div style=&quot;text-wrap: nowrap;&quot;&gt;&lt;span style=&quot;background-color: transparent; color: light-dark(rgb(0, 0, 0), rgb(255, 255, 255));&quot;&gt;&lt;span style=&quot;white-space: pre;&quot;&gt;&#x9;&lt;/span&gt;시스템은 &#39;비밀번호가 일치하지 않습니다&#39; 라는 메시지를 비회원에게 전달&lt;br&gt;&lt;/span&gt;&lt;/div&gt;&lt;div style=&quot;text-wrap: nowrap;&quot;&gt;&lt;span style=&quot;background-color: transparent; color: light-dark(rgb(0, 0, 0), rgb(255, 255, 255));&quot;&gt;&lt;br&gt;&lt;/span&gt;&lt;/div&gt;&lt;div style=&quot;text-wrap: nowrap;&quot;&gt;1h 이메일의 형식이 올바르지 않은 경우&lt;/div&gt;&lt;div style=&quot;text-wrap: nowrap;&quot;&gt;&lt;span style=&quot;white-space: pre;&quot;&gt;&#x9;&lt;/span&gt;시스템은 &#39;이메일의 형식이 올바르지 않습니다&#39; 라는 메시지를 비회원에게 전달&lt;/div&gt;" style="shape=partialRectangle;connectable=0;fillColor=none;top=0;left=0;bottom=0;right=0;align=left;spacingLeft=6;fontStyle=0;overflow=hidden;whiteSpace=wrap;html=1;" vertex="1" parent="XE_Ec_hiV0-5Nvh7rK8N-20">
          <mxGeometry x="60" width="570" height="390" as="geometry">
            <mxRectangle width="570" height="390" as="alternateBounds" />
          </mxGeometry>
        </mxCell>
      </root>
    </mxGraphModel>
  </diagram>
</mxfile>
